<?xml version="1.0" encoding="utf-8"?>
<!-- Generator: Adobe Illustrator 16.0.0, SVG Export Plug-In . SVG Version: 6.00 Build 0)  -->
<!DOCTYPE svg PUBLIC "-//W3C//DTD SVG 1.1//EN" "http://www.w3.org/Graphics/SVG/1.1/DTD/svg11.dtd">
<svg version="1.1" xmlns="http://www.w3.org/2000/svg" xmlns:xlink="http://www.w3.org/1999/xlink" x="0px" y="0px" width="176px"
	 height="176px" viewBox="143.5 62.5 176 176" enable-background="new 143.5 62.5 176 176" xml:space="preserve">
<g id="Layer_2" display="none">
	<rect x="-30.5" y="-31.5" display="inline" fill="#002D65" width="475" height="326"/>
</g>
<g id="Layer_1">
	<g>
		<path fill="#FFFFFF" d="M120.25-3.25C75.377-3.25,39,33.127,39,78s36.377,81.25,81.25,81.25S201.5,122.873,201.5,78
			S165.123-3.25,120.25-3.25z M120.25,153c-41.421,0-75-33.578-75-75c0-41.421,33.579-75,75-75c41.422,0,75,33.579,75,75
			C195.25,119.422,161.672,153,120.25,153z"/>
		<g>
			<polygon fill="#FFFFFF" points="119.284,106.704 119.284,80.973 104.16,101.789 79.688,93.838 94.812,114.655 79.688,135.473 
				104.16,127.521 119.284,148.338 119.284,122.606 143.757,114.655 			"/>
			<polygon fill="#FFFFFF" points="95.875,62.812 118.159,75.678 107.693,52.17 126.815,34.953 101.225,37.643 90.759,14.135 
				85.409,39.305 59.818,41.995 82.102,54.86 76.752,80.029 			"/>
			<polygon fill="#FFFFFF" points="164.713,81.702 190.305,84.393 171.182,67.174 181.648,43.667 159.363,56.533 140.241,39.315 
				145.591,64.484 123.307,77.35 148.897,80.04 154.248,105.209 			"/>
		</g>
	</g>
</g>
</svg>
